<?xml version="1.0" encoding="utf-8" standalone="no"?>
<!DOCTYPE svg PUBLIC "-//W3C//DTD SVG 1.1//EN"
  "http://www.w3.org/Graphics/SVG/1.1/DTD/svg11.dtd">
<svg xmlns:xlink="http://www.w3.org/1999/xlink" width="576pt" height="432pt" viewBox="0 0 576 432" xmlns="http://www.w3.org/2000/svg" version="1.1">
 <metadata>
  <rdf:RDF xmlns:dc="http://purl.org/dc/elements/1.1/" xmlns:cc="http://creativecommons.org/ns#" xmlns:rdf="http://www.w3.org/1999/02/22-rdf-syntax-ns#">
   <cc:Work>
    <dc:type rdf:resource="http://purl.org/dc/dcmitype/StillImage"/>
    <dc:date>2025-02-28T11:18:09.117618</dc:date>
    <dc:format>image/svg+xml</dc:format>
    <dc:creator>
     <cc:Agent>
      <dc:title>Matplotlib v3.10.0, https://matplotlib.org/</dc:title>
     </cc:Agent>
    </dc:creator>
   </cc:Work>
  </rdf:RDF>
 </metadata>
 <defs>
  <style type="text/css">*{stroke-linejoin: round; stroke-linecap: butt}</style>
 </defs>
 <g id="figure_1">
  <g id="patch_1">
   <path d="M 0 432 
L 576 432 
L 576 0 
L 0 0 
z
" style="fill: #ffffff"/>
  </g>
  <g id="axes_1">
   <g id="patch_2">
    <path d="M 10.8 421.2 
L 565.2 421.2 
L 565.2 10.8 
L 10.8 10.8 
z
" style="fill: #ffffff"/>
   </g>
   <g id="LineCollection_1">
    <path d="M 348.687107 180.828544 
L 301.242919 105.571431 
" clip-path="url(#pb23ff8d1e7)" style="fill: none; stroke: #000000; stroke-opacity: 0.5"/>
    <path d="M 348.687107 180.828544 
L 285.13629 158.92801 
" clip-path="url(#pb23ff8d1e7)" style="fill: none; stroke: #000000; stroke-opacity: 0.5"/>
    <path d="M 348.687107 180.828544 
L 387.324927 117.292797 
" clip-path="url(#pb23ff8d1e7)" style="fill: none; stroke: #000000; stroke-opacity: 0.5"/>
    <path d="M 348.687107 180.828544 
L 499.889576 182.948122 
" clip-path="url(#pb23ff8d1e7)" style="fill: none; stroke: #000000; stroke-opacity: 0.5"/>
    <path d="M 348.687107 180.828544 
L 459.215609 268.966528 
" clip-path="url(#pb23ff8d1e7)" style="fill: none; stroke: #000000; stroke-opacity: 0.5"/>
    <path d="M 348.687107 180.828544 
L 500.734502 257.575648 
" clip-path="url(#pb23ff8d1e7)" style="fill: none; stroke: #000000; stroke-opacity: 0.5"/>
    <path d="M 348.687107 180.828544 
L 274.462744 124.384219 
" clip-path="url(#pb23ff8d1e7)" style="fill: none; stroke: #000000; stroke-opacity: 0.5"/>
    <path d="M 348.687107 180.828544 
L 253.256319 199.466846 
" clip-path="url(#pb23ff8d1e7)" style="fill: none; stroke: #000000; stroke-opacity: 0.5"/>
    <path d="M 348.687107 180.828544 
L 465.886428 204.145843 
" clip-path="url(#pb23ff8d1e7)" style="fill: none; stroke: #000000; stroke-opacity: 0.5"/>
    <path d="M 348.687107 180.828544 
L 195.302102 303.881883 
" clip-path="url(#pb23ff8d1e7)" style="fill: none; stroke: #000000; stroke-opacity: 0.5"/>
    <path d="M 348.687107 180.828544 
L 517.090909 134.333274 
" clip-path="url(#pb23ff8d1e7)" style="fill: none; stroke: #000000; stroke-opacity: 0.5"/>
    <path d="M 348.687107 180.828544 
L 333.692178 146.654423 
" clip-path="url(#pb23ff8d1e7)" style="fill: none; stroke: #000000; stroke-opacity: 0.5"/>
    <path d="M 348.687107 180.828544 
L 451.66635 84.892618 
" clip-path="url(#pb23ff8d1e7)" style="fill: none; stroke: #000000; stroke-opacity: 0.5"/>
    <path d="M 348.687107 180.828544 
L 293.541714 46.413223 
" clip-path="url(#pb23ff8d1e7)" style="fill: none; stroke: #000000; stroke-opacity: 0.5"/>
    <path d="M 348.687107 180.828544 
L 168.537951 79.328635 
" clip-path="url(#pb23ff8d1e7)" style="fill: none; stroke: #000000; stroke-opacity: 0.5"/>
    <path d="M 348.687107 180.828544 
L 146.060618 209.73352 
" clip-path="url(#pb23ff8d1e7)" style="fill: none; stroke: #000000; stroke-opacity: 0.5"/>
    <path d="M 301.242919 105.571431 
L 285.13629 158.92801 
" clip-path="url(#pb23ff8d1e7)" style="fill: none; stroke: #000000; stroke-opacity: 0.5"/>
    <path d="M 301.242919 105.571431 
L 387.324927 117.292797 
" clip-path="url(#pb23ff8d1e7)" style="fill: none; stroke: #000000; stroke-opacity: 0.5"/>
    <path d="M 301.242919 105.571431 
L 274.462744 124.384219 
" clip-path="url(#pb23ff8d1e7)" style="fill: none; stroke: #000000; stroke-opacity: 0.5"/>
    <path d="M 301.242919 105.571431 
L 333.692178 146.654423 
" clip-path="url(#pb23ff8d1e7)" style="fill: none; stroke: #000000; stroke-opacity: 0.5"/>
    <path d="M 301.242919 105.571431 
L 451.66635 84.892618 
" clip-path="url(#pb23ff8d1e7)" style="fill: none; stroke: #000000; stroke-opacity: 0.5"/>
    <path d="M 301.242919 105.571431 
L 293.541714 46.413223 
" clip-path="url(#pb23ff8d1e7)" style="fill: none; stroke: #000000; stroke-opacity: 0.5"/>
    <path d="M 301.242919 105.571431 
L 168.537951 79.328635 
" clip-path="url(#pb23ff8d1e7)" style="fill: none; stroke: #000000; stroke-opacity: 0.5"/>
    <path d="M 301.242919 105.571431 
L 193.148142 172.393257 
" clip-path="url(#pb23ff8d1e7)" style="fill: none; stroke: #000000; stroke-opacity: 0.5"/>
    <path d="M 285.13629 158.92801 
L 387.324927 117.292797 
" clip-path="url(#pb23ff8d1e7)" style="fill: none; stroke: #000000; stroke-opacity: 0.5"/>
    <path d="M 285.13629 158.92801 
L 274.462744 124.384219 
" clip-path="url(#pb23ff8d1e7)" style="fill: none; stroke: #000000; stroke-opacity: 0.5"/>
    <path d="M 285.13629 158.92801 
L 253.256319 199.466846 
" clip-path="url(#pb23ff8d1e7)" style="fill: none; stroke: #000000; stroke-opacity: 0.5"/>
    <path d="M 285.13629 158.92801 
L 331.935476 70.68475 
" clip-path="url(#pb23ff8d1e7)" style="fill: none; stroke: #000000; stroke-opacity: 0.5"/>
    <path d="M 285.13629 158.92801 
L 333.692178 146.654423 
" clip-path="url(#pb23ff8d1e7)" style="fill: none; stroke: #000000; stroke-opacity: 0.5"/>
    <path d="M 285.13629 158.92801 
L 168.7594 222.700954 
" clip-path="url(#pb23ff8d1e7)" style="fill: none; stroke: #000000; stroke-opacity: 0.5"/>
    <path d="M 285.13629 158.92801 
L 222.200341 100.700904 
" clip-path="url(#pb23ff8d1e7)" style="fill: none; stroke: #000000; stroke-opacity: 0.5"/>
    <path d="M 285.13629 158.92801 
L 208.525454 270.207959 
" clip-path="url(#pb23ff8d1e7)" style="fill: none; stroke: #000000; stroke-opacity: 0.5"/>
    <path d="M 387.324927 117.292797 
L 274.462744 124.384219 
" clip-path="url(#pb23ff8d1e7)" style="fill: none; stroke: #000000; stroke-opacity: 0.5"/>
    <path d="M 387.324927 117.292797 
L 517.090909 134.333274 
" clip-path="url(#pb23ff8d1e7)" style="fill: none; stroke: #000000; stroke-opacity: 0.5"/>
    <path d="M 387.324927 117.292797 
L 333.692178 146.654423 
" clip-path="url(#pb23ff8d1e7)" style="fill: none; stroke: #000000; stroke-opacity: 0.5"/>
    <path d="M 499.889576 182.948122 
L 500.734502 257.575648 
" clip-path="url(#pb23ff8d1e7)" style="fill: none; stroke: #000000; stroke-opacity: 0.5"/>
    <path d="M 499.889576 182.948122 
L 465.886428 204.145843 
" clip-path="url(#pb23ff8d1e7)" style="fill: none; stroke: #000000; stroke-opacity: 0.5"/>
    <path d="M 459.215609 268.966528 
L 500.734502 257.575648 
" clip-path="url(#pb23ff8d1e7)" style="fill: none; stroke: #000000; stroke-opacity: 0.5"/>
    <path d="M 459.215609 268.966528 
L 465.886428 204.145843 
" clip-path="url(#pb23ff8d1e7)" style="fill: none; stroke: #000000; stroke-opacity: 0.5"/>
    <path d="M 459.215609 268.966528 
L 509.460382 342.796662 
" clip-path="url(#pb23ff8d1e7)" style="fill: none; stroke: #000000; stroke-opacity: 0.5"/>
    <path d="M 500.734502 257.575648 
L 509.460382 342.796662 
" clip-path="url(#pb23ff8d1e7)" style="fill: none; stroke: #000000; stroke-opacity: 0.5"/>
    <path d="M 253.256319 199.466846 
L 193.148142 172.393257 
" clip-path="url(#pb23ff8d1e7)" style="fill: none; stroke: #000000; stroke-opacity: 0.5"/>
    <path d="M 253.256319 199.466846 
L 208.525454 270.207959 
" clip-path="url(#pb23ff8d1e7)" style="fill: none; stroke: #000000; stroke-opacity: 0.5"/>
    <path d="M 253.256319 199.466846 
L 233.827841 232.556138 
" clip-path="url(#pb23ff8d1e7)" style="fill: none; stroke: #000000; stroke-opacity: 0.5"/>
    <path d="M 331.935476 70.68475 
L 233.827841 232.556138 
" clip-path="url(#pb23ff8d1e7)" style="fill: none; stroke: #000000; stroke-opacity: 0.5"/>
    <path d="M 333.692178 146.654423 
L 233.827841 232.556138 
" clip-path="url(#pb23ff8d1e7)" style="fill: none; stroke: #000000; stroke-opacity: 0.5"/>
    <path d="M 102.677467 314.26667 
L 208.525454 270.207959 
" clip-path="url(#pb23ff8d1e7)" style="fill: none; stroke: #000000; stroke-opacity: 0.5"/>
    <path d="M 102.677467 314.26667 
L 233.827841 232.556138 
" clip-path="url(#pb23ff8d1e7)" style="fill: none; stroke: #000000; stroke-opacity: 0.5"/>
    <path d="M 316.065384 294.120392 
L 208.525454 270.207959 
" clip-path="url(#pb23ff8d1e7)" style="fill: none; stroke: #000000; stroke-opacity: 0.5"/>
    <path d="M 316.065384 294.120392 
L 233.827841 232.556138 
" clip-path="url(#pb23ff8d1e7)" style="fill: none; stroke: #000000; stroke-opacity: 0.5"/>
    <path d="M 103.223628 147.968859 
L 208.525454 270.207959 
" clip-path="url(#pb23ff8d1e7)" style="fill: none; stroke: #000000; stroke-opacity: 0.5"/>
    <path d="M 103.223628 147.968859 
L 233.827841 232.556138 
" clip-path="url(#pb23ff8d1e7)" style="fill: none; stroke: #000000; stroke-opacity: 0.5"/>
    <path d="M 293.541714 46.413223 
L 233.827841 232.556138 
" clip-path="url(#pb23ff8d1e7)" style="fill: none; stroke: #000000; stroke-opacity: 0.5"/>
    <path d="M 162.443951 383.228034 
L 208.525454 270.207959 
" clip-path="url(#pb23ff8d1e7)" style="fill: none; stroke: #000000; stroke-opacity: 0.5"/>
    <path d="M 162.443951 383.228034 
L 233.827841 232.556138 
" clip-path="url(#pb23ff8d1e7)" style="fill: none; stroke: #000000; stroke-opacity: 0.5"/>
    <path d="M 307.805516 345.150914 
L 208.525454 270.207959 
" clip-path="url(#pb23ff8d1e7)" style="fill: none; stroke: #000000; stroke-opacity: 0.5"/>
    <path d="M 307.805516 345.150914 
L 233.827841 232.556138 
" clip-path="url(#pb23ff8d1e7)" style="fill: none; stroke: #000000; stroke-opacity: 0.5"/>
    <path d="M 154.605008 274.032582 
L 58.909091 235.988097 
" clip-path="url(#pb23ff8d1e7)" style="fill: none; stroke: #000000; stroke-opacity: 0.5"/>
    <path d="M 154.605008 274.032582 
L 168.7594 222.700954 
" clip-path="url(#pb23ff8d1e7)" style="fill: none; stroke: #000000; stroke-opacity: 0.5"/>
    <path d="M 154.605008 274.032582 
L 280.296208 310.810318 
" clip-path="url(#pb23ff8d1e7)" style="fill: none; stroke: #000000; stroke-opacity: 0.5"/>
    <path d="M 154.605008 274.032582 
L 208.525454 270.207959 
" clip-path="url(#pb23ff8d1e7)" style="fill: none; stroke: #000000; stroke-opacity: 0.5"/>
    <path d="M 154.605008 274.032582 
L 233.827841 232.556138 
" clip-path="url(#pb23ff8d1e7)" style="fill: none; stroke: #000000; stroke-opacity: 0.5"/>
    <path d="M 80.994562 267.033164 
L 58.909091 235.988097 
" clip-path="url(#pb23ff8d1e7)" style="fill: none; stroke: #000000; stroke-opacity: 0.5"/>
    <path d="M 80.994562 267.033164 
L 168.7594 222.700954 
" clip-path="url(#pb23ff8d1e7)" style="fill: none; stroke: #000000; stroke-opacity: 0.5"/>
    <path d="M 80.994562 267.033164 
L 146.060618 209.73352 
" clip-path="url(#pb23ff8d1e7)" style="fill: none; stroke: #000000; stroke-opacity: 0.5"/>
    <path d="M 58.909091 235.988097 
L 146.060618 209.73352 
" clip-path="url(#pb23ff8d1e7)" style="fill: none; stroke: #000000; stroke-opacity: 0.5"/>
    <path d="M 271.861111 385.586777 
L 280.296208 310.810318 
" clip-path="url(#pb23ff8d1e7)" style="fill: none; stroke: #000000; stroke-opacity: 0.5"/>
    <path d="M 271.861111 385.586777 
L 233.827841 232.556138 
" clip-path="url(#pb23ff8d1e7)" style="fill: none; stroke: #000000; stroke-opacity: 0.5"/>
    <path d="M 168.7594 222.700954 
L 233.827841 232.556138 
" clip-path="url(#pb23ff8d1e7)" style="fill: none; stroke: #000000; stroke-opacity: 0.5"/>
    <path d="M 222.200341 100.700904 
L 146.060618 209.73352 
" clip-path="url(#pb23ff8d1e7)" style="fill: none; stroke: #000000; stroke-opacity: 0.5"/>
    <path d="M 222.200341 100.700904 
L 233.827841 232.556138 
" clip-path="url(#pb23ff8d1e7)" style="fill: none; stroke: #000000; stroke-opacity: 0.5"/>
    <path d="M 280.296208 310.810318 
L 208.525454 270.207959 
" clip-path="url(#pb23ff8d1e7)" style="fill: none; stroke: #000000; stroke-opacity: 0.5"/>
    <path d="M 280.296208 310.810318 
L 233.827841 232.556138 
" clip-path="url(#pb23ff8d1e7)" style="fill: none; stroke: #000000; stroke-opacity: 0.5"/>
    <path d="M 193.148142 172.393257 
L 208.525454 270.207959 
" clip-path="url(#pb23ff8d1e7)" style="fill: none; stroke: #000000; stroke-opacity: 0.5"/>
    <path d="M 193.148142 172.393257 
L 233.827841 232.556138 
" clip-path="url(#pb23ff8d1e7)" style="fill: none; stroke: #000000; stroke-opacity: 0.5"/>
    <path d="M 146.060618 209.73352 
L 208.525454 270.207959 
" clip-path="url(#pb23ff8d1e7)" style="fill: none; stroke: #000000; stroke-opacity: 0.5"/>
    <path d="M 146.060618 209.73352 
L 233.827841 232.556138 
" clip-path="url(#pb23ff8d1e7)" style="fill: none; stroke: #000000; stroke-opacity: 0.5"/>
    <path d="M 208.525454 270.207959 
L 233.827841 232.556138 
" clip-path="url(#pb23ff8d1e7)" style="fill: none; stroke: #000000; stroke-opacity: 0.5"/>
   </g>
   <g id="matplotlib.axis_1">
    <g id="xtick_1"/>
    <g id="xtick_2"/>
    <g id="xtick_3"/>
    <g id="xtick_4"/>
    <g id="xtick_5"/>
   </g>
   <g id="matplotlib.axis_2">
    <g id="ytick_1"/>
    <g id="ytick_2"/>
    <g id="ytick_3"/>
    <g id="ytick_4"/>
    <g id="ytick_5"/>
    <g id="ytick_6"/>
    <g id="ytick_7"/>
    <g id="ytick_8"/>
    <g id="ytick_9"/>
   </g>
   <g id="PathCollection_1">
    <defs>
     <path id="C0_0_20e466f345" d="M 0 11.18034 
C 2.965061 11.18034 5.80908 10.002309 7.905694 7.905694 
C 10.002309 5.80908 11.18034 2.965061 11.18034 -0 
C 11.18034 -2.965061 10.002309 -5.80908 7.905694 -7.905694 
C 5.80908 -10.002309 2.965061 -11.18034 0 -11.18034 
C -2.965061 -11.18034 -5.80908 -10.002309 -7.905694 -7.905694 
C -10.002309 -5.80908 -11.18034 -2.965061 -11.18034 0 
C -11.18034 2.965061 -10.002309 5.80908 -7.905694 7.905694 
C -5.80908 10.002309 -2.965061 11.18034 0 11.18034 
z
"/>
    </defs>
    <g clip-path="url(#pb23ff8d1e7)">
     <use xlink:href="#C0_0_20e466f345" x="348.687107" y="180.828544" style="fill: #8000ff; stroke: #8000ff"/>
    </g>
    <g clip-path="url(#pb23ff8d1e7)">
     <use xlink:href="#C0_0_20e466f345" x="301.242919" y="105.571431" style="fill: #8000ff; stroke: #8000ff"/>
    </g>
    <g clip-path="url(#pb23ff8d1e7)">
     <use xlink:href="#C0_0_20e466f345" x="285.13629" y="158.92801" style="fill: #ff0000; stroke: #ff0000"/>
    </g>
    <g clip-path="url(#pb23ff8d1e7)">
     <use xlink:href="#C0_0_20e466f345" x="387.324927" y="117.292797" style="fill: #8000ff; stroke: #8000ff"/>
    </g>
    <g clip-path="url(#pb23ff8d1e7)">
     <use xlink:href="#C0_0_20e466f345" x="499.889576" y="182.948122" style="fill: #8000ff; stroke: #8000ff"/>
    </g>
    <g clip-path="url(#pb23ff8d1e7)">
     <use xlink:href="#C0_0_20e466f345" x="459.215609" y="268.966528" style="fill: #8000ff; stroke: #8000ff"/>
    </g>
    <g clip-path="url(#pb23ff8d1e7)">
     <use xlink:href="#C0_0_20e466f345" x="500.734502" y="257.575648" style="fill: #8000ff; stroke: #8000ff"/>
    </g>
    <g clip-path="url(#pb23ff8d1e7)">
     <use xlink:href="#C0_0_20e466f345" x="274.462744" y="124.384219" style="fill: #8000ff; stroke: #8000ff"/>
    </g>
    <g clip-path="url(#pb23ff8d1e7)">
     <use xlink:href="#C0_0_20e466f345" x="253.256319" y="199.466846" style="fill: #ff0000; stroke: #ff0000"/>
    </g>
    <g clip-path="url(#pb23ff8d1e7)">
     <use xlink:href="#C0_0_20e466f345" x="331.935476" y="70.68475" style="fill: #ff0000; stroke: #ff0000"/>
    </g>
    <g clip-path="url(#pb23ff8d1e7)">
     <use xlink:href="#C0_0_20e466f345" x="465.886428" y="204.145843" style="fill: #8000ff; stroke: #8000ff"/>
    </g>
    <g clip-path="url(#pb23ff8d1e7)">
     <use xlink:href="#C0_0_20e466f345" x="195.302102" y="303.881883" style="fill: #8000ff; stroke: #8000ff"/>
    </g>
    <g clip-path="url(#pb23ff8d1e7)">
     <use xlink:href="#C0_0_20e466f345" x="517.090909" y="134.333274" style="fill: #8000ff; stroke: #8000ff"/>
    </g>
    <g clip-path="url(#pb23ff8d1e7)">
     <use xlink:href="#C0_0_20e466f345" x="333.692178" y="146.654423" style="fill: #8000ff; stroke: #8000ff"/>
    </g>
    <g clip-path="url(#pb23ff8d1e7)">
     <use xlink:href="#C0_0_20e466f345" x="102.677467" y="314.26667" style="fill: #ff0000; stroke: #ff0000"/>
    </g>
    <g clip-path="url(#pb23ff8d1e7)">
     <use xlink:href="#C0_0_20e466f345" x="316.065384" y="294.120392" style="fill: #ff0000; stroke: #ff0000"/>
    </g>
    <g clip-path="url(#pb23ff8d1e7)">
     <use xlink:href="#C0_0_20e466f345" x="509.460382" y="342.796662" style="fill: #8000ff; stroke: #8000ff"/>
    </g>
    <g clip-path="url(#pb23ff8d1e7)">
     <use xlink:href="#C0_0_20e466f345" x="451.66635" y="84.892618" style="fill: #8000ff; stroke: #8000ff"/>
    </g>
    <g clip-path="url(#pb23ff8d1e7)">
     <use xlink:href="#C0_0_20e466f345" x="103.223628" y="147.968859" style="fill: #ff0000; stroke: #ff0000"/>
    </g>
    <g clip-path="url(#pb23ff8d1e7)">
     <use xlink:href="#C0_0_20e466f345" x="293.541714" y="46.413223" style="fill: #8000ff; stroke: #8000ff"/>
    </g>
    <g clip-path="url(#pb23ff8d1e7)">
     <use xlink:href="#C0_0_20e466f345" x="162.443951" y="383.228034" style="fill: #ff0000; stroke: #ff0000"/>
    </g>
    <g clip-path="url(#pb23ff8d1e7)">
     <use xlink:href="#C0_0_20e466f345" x="168.537951" y="79.328635" style="fill: #8000ff; stroke: #8000ff"/>
    </g>
    <g clip-path="url(#pb23ff8d1e7)">
     <use xlink:href="#C0_0_20e466f345" x="307.805516" y="345.150914" style="fill: #ff0000; stroke: #ff0000"/>
    </g>
    <g clip-path="url(#pb23ff8d1e7)">
     <use xlink:href="#C0_0_20e466f345" x="154.605008" y="274.032582" style="fill: #ff0000; stroke: #ff0000"/>
    </g>
    <g clip-path="url(#pb23ff8d1e7)">
     <use xlink:href="#C0_0_20e466f345" x="80.994562" y="267.033164" style="fill: #ff0000; stroke: #ff0000"/>
    </g>
    <g clip-path="url(#pb23ff8d1e7)">
     <use xlink:href="#C0_0_20e466f345" x="58.909091" y="235.988097" style="fill: #ff0000; stroke: #ff0000"/>
    </g>
    <g clip-path="url(#pb23ff8d1e7)">
     <use xlink:href="#C0_0_20e466f345" x="271.861111" y="385.586777" style="fill: #ff0000; stroke: #ff0000"/>
    </g>
    <g clip-path="url(#pb23ff8d1e7)">
     <use xlink:href="#C0_0_20e466f345" x="168.7594" y="222.700954" style="fill: #ff0000; stroke: #ff0000"/>
    </g>
    <g clip-path="url(#pb23ff8d1e7)">
     <use xlink:href="#C0_0_20e466f345" x="222.200341" y="100.700904" style="fill: #ff0000; stroke: #ff0000"/>
    </g>
    <g clip-path="url(#pb23ff8d1e7)">
     <use xlink:href="#C0_0_20e466f345" x="280.296208" y="310.810318" style="fill: #ff0000; stroke: #ff0000"/>
    </g>
    <g clip-path="url(#pb23ff8d1e7)">
     <use xlink:href="#C0_0_20e466f345" x="193.148142" y="172.393257" style="fill: #ff0000; stroke: #ff0000"/>
    </g>
    <g clip-path="url(#pb23ff8d1e7)">
     <use xlink:href="#C0_0_20e466f345" x="146.060618" y="209.73352" style="fill: #ff0000; stroke: #ff0000"/>
    </g>
    <g clip-path="url(#pb23ff8d1e7)">
     <use xlink:href="#C0_0_20e466f345" x="208.525454" y="270.207959" style="fill: #ff0000; stroke: #ff0000"/>
    </g>
    <g clip-path="url(#pb23ff8d1e7)">
     <use xlink:href="#C0_0_20e466f345" x="233.827841" y="232.556138" style="fill: #ff0000; stroke: #ff0000"/>
    </g>
   </g>
   <g id="patch_3">
    <path d="M 10.8 421.2 
L 10.8 10.8 
" style="fill: none; stroke: #000000; stroke-width: 0.8; stroke-linejoin: miter; stroke-linecap: square"/>
   </g>
   <g id="patch_4">
    <path d="M 565.2 421.2 
L 565.2 10.8 
" style="fill: none; stroke: #000000; stroke-width: 0.8; stroke-linejoin: miter; stroke-linecap: square"/>
   </g>
   <g id="patch_5">
    <path d="M 10.8 421.2 
L 565.2 421.2 
" style="fill: none; stroke: #000000; stroke-width: 0.8; stroke-linejoin: miter; stroke-linecap: square"/>
   </g>
   <g id="patch_6">
    <path d="M 10.8 10.8 
L 565.2 10.8 
" style="fill: none; stroke: #000000; stroke-width: 0.8; stroke-linejoin: miter; stroke-linecap: square"/>
   </g>
   <g id="text_1">
    <g clip-path="url(#pb23ff8d1e7)">
     <!-- 0 -->
     <g transform="translate(344.512419 184.139794) scale(0.12 -0.12)">
      <defs>
       <path id="DejaVuSans-Bold-30" d="M 2944 2338 
Q 2944 3213 2780 3570 
Q 2616 3928 2228 3928 
Q 1841 3928 1675 3570 
Q 1509 3213 1509 2338 
Q 1509 1453 1675 1090 
Q 1841 728 2228 728 
Q 2613 728 2778 1090 
Q 2944 1453 2944 2338 
z
M 4147 2328 
Q 4147 1169 3647 539 
Q 3147 -91 2228 -91 
Q 1306 -91 806 539 
Q 306 1169 306 2328 
Q 306 3491 806 4120 
Q 1306 4750 2228 4750 
Q 3147 4750 3647 4120 
Q 4147 3491 4147 2328 
z
" transform="scale(0.015625)"/>
      </defs>
      <use xlink:href="#DejaVuSans-Bold-30"/>
     </g>
    </g>
   </g>
   <g id="text_2">
    <g clip-path="url(#pb23ff8d1e7)">
     <!-- 1 -->
     <g transform="translate(297.068232 108.882681) scale(0.12 -0.12)">
      <defs>
       <path id="DejaVuSans-Bold-31" d="M 750 831 
L 1813 831 
L 1813 3847 
L 722 3622 
L 722 4441 
L 1806 4666 
L 2950 4666 
L 2950 831 
L 4013 831 
L 4013 0 
L 750 0 
L 750 831 
z
" transform="scale(0.015625)"/>
      </defs>
      <use xlink:href="#DejaVuSans-Bold-31"/>
     </g>
    </g>
   </g>
   <g id="text_3">
    <g clip-path="url(#pb23ff8d1e7)">
     <!-- 2 -->
     <g transform="translate(280.961603 162.23926) scale(0.12 -0.12)">
      <defs>
       <path id="DejaVuSans-Bold-32" d="M 1844 884 
L 3897 884 
L 3897 0 
L 506 0 
L 506 884 
L 2209 2388 
Q 2438 2594 2547 2791 
Q 2656 2988 2656 3200 
Q 2656 3528 2436 3728 
Q 2216 3928 1850 3928 
Q 1569 3928 1234 3808 
Q 900 3688 519 3450 
L 519 4475 
Q 925 4609 1322 4679 
Q 1719 4750 2100 4750 
Q 2938 4750 3402 4381 
Q 3866 4013 3866 3353 
Q 3866 2972 3669 2642 
Q 3472 2313 2841 1759 
L 1844 884 
z
" transform="scale(0.015625)"/>
      </defs>
      <use xlink:href="#DejaVuSans-Bold-32"/>
     </g>
    </g>
   </g>
   <g id="text_4">
    <g clip-path="url(#pb23ff8d1e7)">
     <!-- 3 -->
     <g transform="translate(383.15024 120.604047) scale(0.12 -0.12)">
      <defs>
       <path id="DejaVuSans-Bold-33" d="M 2981 2516 
Q 3453 2394 3698 2092 
Q 3944 1791 3944 1325 
Q 3944 631 3412 270 
Q 2881 -91 1863 -91 
Q 1503 -91 1142 -33 
Q 781 25 428 141 
L 428 1069 
Q 766 900 1098 814 
Q 1431 728 1753 728 
Q 2231 728 2486 893 
Q 2741 1059 2741 1369 
Q 2741 1688 2480 1852 
Q 2219 2016 1709 2016 
L 1228 2016 
L 1228 2791 
L 1734 2791 
Q 2188 2791 2409 2933 
Q 2631 3075 2631 3366 
Q 2631 3634 2415 3781 
Q 2200 3928 1806 3928 
Q 1516 3928 1219 3862 
Q 922 3797 628 3669 
L 628 4550 
Q 984 4650 1334 4700 
Q 1684 4750 2022 4750 
Q 2931 4750 3382 4451 
Q 3834 4153 3834 3553 
Q 3834 3144 3618 2883 
Q 3403 2622 2981 2516 
z
" transform="scale(0.015625)"/>
      </defs>
      <use xlink:href="#DejaVuSans-Bold-33"/>
     </g>
    </g>
   </g>
   <g id="text_5">
    <g clip-path="url(#pb23ff8d1e7)">
     <!-- 4 -->
     <g transform="translate(495.714889 186.259372) scale(0.12 -0.12)">
      <defs>
       <path id="DejaVuSans-Bold-34" d="M 2356 3675 
L 1038 1722 
L 2356 1722 
L 2356 3675 
z
M 2156 4666 
L 3494 4666 
L 3494 1722 
L 4159 1722 
L 4159 850 
L 3494 850 
L 3494 0 
L 2356 0 
L 2356 850 
L 288 850 
L 288 1881 
L 2156 4666 
z
" transform="scale(0.015625)"/>
      </defs>
      <use xlink:href="#DejaVuSans-Bold-34"/>
     </g>
    </g>
   </g>
   <g id="text_6">
    <g clip-path="url(#pb23ff8d1e7)">
     <!-- 5 -->
     <g transform="translate(455.040922 272.277778) scale(0.12 -0.12)">
      <defs>
       <path id="DejaVuSans-Bold-35" d="M 678 4666 
L 3669 4666 
L 3669 3781 
L 1638 3781 
L 1638 3059 
Q 1775 3097 1914 3117 
Q 2053 3138 2203 3138 
Q 3056 3138 3531 2711 
Q 4006 2284 4006 1522 
Q 4006 766 3489 337 
Q 2972 -91 2053 -91 
Q 1656 -91 1267 -14 
Q 878 63 494 219 
L 494 1166 
Q 875 947 1217 837 
Q 1559 728 1863 728 
Q 2300 728 2551 942 
Q 2803 1156 2803 1522 
Q 2803 1891 2551 2103 
Q 2300 2316 1863 2316 
Q 1603 2316 1309 2248 
Q 1016 2181 678 2041 
L 678 4666 
z
" transform="scale(0.015625)"/>
      </defs>
      <use xlink:href="#DejaVuSans-Bold-35"/>
     </g>
    </g>
   </g>
   <g id="text_7">
    <g clip-path="url(#pb23ff8d1e7)">
     <!-- 6 -->
     <g transform="translate(496.559815 260.886898) scale(0.12 -0.12)">
      <defs>
       <path id="DejaVuSans-Bold-36" d="M 2316 2303 
Q 2000 2303 1842 2098 
Q 1684 1894 1684 1484 
Q 1684 1075 1842 870 
Q 2000 666 2316 666 
Q 2634 666 2792 870 
Q 2950 1075 2950 1484 
Q 2950 1894 2792 2098 
Q 2634 2303 2316 2303 
z
M 3803 4544 
L 3803 3681 
Q 3506 3822 3243 3889 
Q 2981 3956 2731 3956 
Q 2194 3956 1894 3657 
Q 1594 3359 1544 2772 
Q 1750 2925 1990 3001 
Q 2231 3078 2516 3078 
Q 3231 3078 3670 2659 
Q 4109 2241 4109 1563 
Q 4109 813 3618 361 
Q 3128 -91 2303 -91 
Q 1394 -91 895 523 
Q 397 1138 397 2266 
Q 397 3422 980 4083 
Q 1563 4744 2578 4744 
Q 2900 4744 3203 4694 
Q 3506 4644 3803 4544 
z
" transform="scale(0.015625)"/>
      </defs>
      <use xlink:href="#DejaVuSans-Bold-36"/>
     </g>
    </g>
   </g>
   <g id="text_8">
    <g clip-path="url(#pb23ff8d1e7)">
     <!-- 7 -->
     <g transform="translate(270.288057 127.695469) scale(0.12 -0.12)">
      <defs>
       <path id="DejaVuSans-Bold-37" d="M 428 4666 
L 3944 4666 
L 3944 3988 
L 2125 0 
L 953 0 
L 2675 3781 
L 428 3781 
L 428 4666 
z
" transform="scale(0.015625)"/>
      </defs>
      <use xlink:href="#DejaVuSans-Bold-37"/>
     </g>
    </g>
   </g>
   <g id="text_9">
    <g clip-path="url(#pb23ff8d1e7)">
     <!-- 8 -->
     <g transform="translate(249.081632 202.778096) scale(0.12 -0.12)">
      <defs>
       <path id="DejaVuSans-Bold-38" d="M 2228 2088 
Q 1891 2088 1709 1903 
Q 1528 1719 1528 1375 
Q 1528 1031 1709 848 
Q 1891 666 2228 666 
Q 2563 666 2741 848 
Q 2919 1031 2919 1375 
Q 2919 1722 2741 1905 
Q 2563 2088 2228 2088 
z
M 1350 2484 
Q 925 2613 709 2878 
Q 494 3144 494 3541 
Q 494 4131 934 4440 
Q 1375 4750 2228 4750 
Q 3075 4750 3515 4442 
Q 3956 4134 3956 3541 
Q 3956 3144 3739 2878 
Q 3522 2613 3097 2484 
Q 3572 2353 3814 2058 
Q 4056 1763 4056 1313 
Q 4056 619 3595 264 
Q 3134 -91 2228 -91 
Q 1319 -91 855 264 
Q 391 619 391 1313 
Q 391 1763 633 2058 
Q 875 2353 1350 2484 
z
M 1631 3419 
Q 1631 3141 1786 2991 
Q 1941 2841 2228 2841 
Q 2509 2841 2662 2991 
Q 2816 3141 2816 3419 
Q 2816 3697 2662 3845 
Q 2509 3994 2228 3994 
Q 1941 3994 1786 3844 
Q 1631 3694 1631 3419 
z
" transform="scale(0.015625)"/>
      </defs>
      <use xlink:href="#DejaVuSans-Bold-38"/>
     </g>
    </g>
   </g>
   <g id="text_10">
    <g clip-path="url(#pb23ff8d1e7)">
     <!-- 9 -->
     <g transform="translate(327.760789 73.996) scale(0.12 -0.12)">
      <defs>
       <path id="DejaVuSans-Bold-39" d="M 641 103 
L 641 966 
Q 928 831 1190 764 
Q 1453 697 1709 697 
Q 2247 697 2547 995 
Q 2847 1294 2900 1881 
Q 2688 1725 2447 1647 
Q 2206 1569 1925 1569 
Q 1209 1569 770 1986 
Q 331 2403 331 3084 
Q 331 3838 820 4291 
Q 1309 4744 2131 4744 
Q 3044 4744 3544 4128 
Q 4044 3513 4044 2388 
Q 4044 1231 3459 570 
Q 2875 -91 1856 -91 
Q 1528 -91 1228 -42 
Q 928 6 641 103 
z
M 2125 2350 
Q 2441 2350 2600 2554 
Q 2759 2759 2759 3169 
Q 2759 3575 2600 3781 
Q 2441 3988 2125 3988 
Q 1809 3988 1650 3781 
Q 1491 3575 1491 3169 
Q 1491 2759 1650 2554 
Q 1809 2350 2125 2350 
z
" transform="scale(0.015625)"/>
      </defs>
      <use xlink:href="#DejaVuSans-Bold-39"/>
     </g>
    </g>
   </g>
   <g id="text_11">
    <g clip-path="url(#pb23ff8d1e7)">
     <!-- 10 -->
     <g transform="translate(457.537053 207.457093) scale(0.12 -0.12)">
      <use xlink:href="#DejaVuSans-Bold-31"/>
      <use xlink:href="#DejaVuSans-Bold-30" transform="translate(69.580078 0)"/>
     </g>
    </g>
   </g>
   <g id="text_12">
    <g clip-path="url(#pb23ff8d1e7)">
     <!-- 11 -->
     <g transform="translate(186.952727 307.193133) scale(0.12 -0.12)">
      <use xlink:href="#DejaVuSans-Bold-31"/>
      <use xlink:href="#DejaVuSans-Bold-31" transform="translate(69.580078 0)"/>
     </g>
    </g>
   </g>
   <g id="text_13">
    <g clip-path="url(#pb23ff8d1e7)">
     <!-- 12 -->
     <g transform="translate(508.741534 137.644524) scale(0.12 -0.12)">
      <use xlink:href="#DejaVuSans-Bold-31"/>
      <use xlink:href="#DejaVuSans-Bold-32" transform="translate(69.580078 0)"/>
     </g>
    </g>
   </g>
   <g id="text_14">
    <g clip-path="url(#pb23ff8d1e7)">
     <!-- 13 -->
     <g transform="translate(325.342803 149.965673) scale(0.12 -0.12)">
      <use xlink:href="#DejaVuSans-Bold-31"/>
      <use xlink:href="#DejaVuSans-Bold-33" transform="translate(69.580078 0)"/>
     </g>
    </g>
   </g>
   <g id="text_15">
    <g clip-path="url(#pb23ff8d1e7)">
     <!-- 14 -->
     <g transform="translate(94.328092 317.57792) scale(0.12 -0.12)">
      <use xlink:href="#DejaVuSans-Bold-31"/>
      <use xlink:href="#DejaVuSans-Bold-34" transform="translate(69.580078 0)"/>
     </g>
    </g>
   </g>
   <g id="text_16">
    <g clip-path="url(#pb23ff8d1e7)">
     <!-- 15 -->
     <g transform="translate(307.716009 297.431642) scale(0.12 -0.12)">
      <use xlink:href="#DejaVuSans-Bold-31"/>
      <use xlink:href="#DejaVuSans-Bold-35" transform="translate(69.580078 0)"/>
     </g>
    </g>
   </g>
   <g id="text_17">
    <g clip-path="url(#pb23ff8d1e7)">
     <!-- 16 -->
     <g transform="translate(501.111007 346.107912) scale(0.12 -0.12)">
      <use xlink:href="#DejaVuSans-Bold-31"/>
      <use xlink:href="#DejaVuSans-Bold-36" transform="translate(69.580078 0)"/>
     </g>
    </g>
   </g>
   <g id="text_18">
    <g clip-path="url(#pb23ff8d1e7)">
     <!-- 17 -->
     <g transform="translate(443.316975 88.203868) scale(0.12 -0.12)">
      <use xlink:href="#DejaVuSans-Bold-31"/>
      <use xlink:href="#DejaVuSans-Bold-37" transform="translate(69.580078 0)"/>
     </g>
    </g>
   </g>
   <g id="text_19">
    <g clip-path="url(#pb23ff8d1e7)">
     <!-- 18 -->
     <g transform="translate(94.874253 151.280109) scale(0.12 -0.12)">
      <use xlink:href="#DejaVuSans-Bold-31"/>
      <use xlink:href="#DejaVuSans-Bold-38" transform="translate(69.580078 0)"/>
     </g>
    </g>
   </g>
   <g id="text_20">
    <g clip-path="url(#pb23ff8d1e7)">
     <!-- 19 -->
     <g transform="translate(285.192339 49.724473) scale(0.12 -0.12)">
      <use xlink:href="#DejaVuSans-Bold-31"/>
      <use xlink:href="#DejaVuSans-Bold-39" transform="translate(69.580078 0)"/>
     </g>
    </g>
   </g>
   <g id="text_21">
    <g clip-path="url(#pb23ff8d1e7)">
     <!-- 20 -->
     <g transform="translate(154.094576 386.539284) scale(0.12 -0.12)">
      <use xlink:href="#DejaVuSans-Bold-32"/>
      <use xlink:href="#DejaVuSans-Bold-30" transform="translate(69.580078 0)"/>
     </g>
    </g>
   </g>
   <g id="text_22">
    <g clip-path="url(#pb23ff8d1e7)">
     <!-- 21 -->
     <g transform="translate(160.188576 82.639885) scale(0.12 -0.12)">
      <use xlink:href="#DejaVuSans-Bold-32"/>
      <use xlink:href="#DejaVuSans-Bold-31" transform="translate(69.580078 0)"/>
     </g>
    </g>
   </g>
   <g id="text_23">
    <g clip-path="url(#pb23ff8d1e7)">
     <!-- 22 -->
     <g transform="translate(299.456141 348.462164) scale(0.12 -0.12)">
      <use xlink:href="#DejaVuSans-Bold-32"/>
      <use xlink:href="#DejaVuSans-Bold-32" transform="translate(69.580078 0)"/>
     </g>
    </g>
   </g>
   <g id="text_24">
    <g clip-path="url(#pb23ff8d1e7)">
     <!-- 23 -->
     <g transform="translate(146.255633 277.343832) scale(0.12 -0.12)">
      <use xlink:href="#DejaVuSans-Bold-32"/>
      <use xlink:href="#DejaVuSans-Bold-33" transform="translate(69.580078 0)"/>
     </g>
    </g>
   </g>
   <g id="text_25">
    <g clip-path="url(#pb23ff8d1e7)">
     <!-- 24 -->
     <g transform="translate(72.645187 270.344414) scale(0.12 -0.12)">
      <use xlink:href="#DejaVuSans-Bold-32"/>
      <use xlink:href="#DejaVuSans-Bold-34" transform="translate(69.580078 0)"/>
     </g>
    </g>
   </g>
   <g id="text_26">
    <g clip-path="url(#pb23ff8d1e7)">
     <!-- 25 -->
     <g transform="translate(50.559716 239.299347) scale(0.12 -0.12)">
      <use xlink:href="#DejaVuSans-Bold-32"/>
      <use xlink:href="#DejaVuSans-Bold-35" transform="translate(69.580078 0)"/>
     </g>
    </g>
   </g>
   <g id="text_27">
    <g clip-path="url(#pb23ff8d1e7)">
     <!-- 26 -->
     <g transform="translate(263.511736 388.898027) scale(0.12 -0.12)">
      <use xlink:href="#DejaVuSans-Bold-32"/>
      <use xlink:href="#DejaVuSans-Bold-36" transform="translate(69.580078 0)"/>
     </g>
    </g>
   </g>
   <g id="text_28">
    <g clip-path="url(#pb23ff8d1e7)">
     <!-- 27 -->
     <g transform="translate(160.410025 226.012204) scale(0.12 -0.12)">
      <use xlink:href="#DejaVuSans-Bold-32"/>
      <use xlink:href="#DejaVuSans-Bold-37" transform="translate(69.580078 0)"/>
     </g>
    </g>
   </g>
   <g id="text_29">
    <g clip-path="url(#pb23ff8d1e7)">
     <!-- 28 -->
     <g transform="translate(213.850966 104.012154) scale(0.12 -0.12)">
      <use xlink:href="#DejaVuSans-Bold-32"/>
      <use xlink:href="#DejaVuSans-Bold-38" transform="translate(69.580078 0)"/>
     </g>
    </g>
   </g>
   <g id="text_30">
    <g clip-path="url(#pb23ff8d1e7)">
     <!-- 29 -->
     <g transform="translate(271.946833 314.121568) scale(0.12 -0.12)">
      <use xlink:href="#DejaVuSans-Bold-32"/>
      <use xlink:href="#DejaVuSans-Bold-39" transform="translate(69.580078 0)"/>
     </g>
    </g>
   </g>
   <g id="text_31">
    <g clip-path="url(#pb23ff8d1e7)">
     <!-- 30 -->
     <g transform="translate(184.798767 175.704507) scale(0.12 -0.12)">
      <use xlink:href="#DejaVuSans-Bold-33"/>
      <use xlink:href="#DejaVuSans-Bold-30" transform="translate(69.580078 0)"/>
     </g>
    </g>
   </g>
   <g id="text_32">
    <g clip-path="url(#pb23ff8d1e7)">
     <!-- 31 -->
     <g transform="translate(137.711243 213.04477) scale(0.12 -0.12)">
      <use xlink:href="#DejaVuSans-Bold-33"/>
      <use xlink:href="#DejaVuSans-Bold-31" transform="translate(69.580078 0)"/>
     </g>
    </g>
   </g>
   <g id="text_33">
    <g clip-path="url(#pb23ff8d1e7)">
     <!-- 32 -->
     <g transform="translate(200.176079 273.519209) scale(0.12 -0.12)">
      <use xlink:href="#DejaVuSans-Bold-33"/>
      <use xlink:href="#DejaVuSans-Bold-32" transform="translate(69.580078 0)"/>
     </g>
    </g>
   </g>
   <g id="text_34">
    <g clip-path="url(#pb23ff8d1e7)">
     <!-- 33 -->
     <g transform="translate(225.478466 235.867388) scale(0.12 -0.12)">
      <use xlink:href="#DejaVuSans-Bold-33"/>
      <use xlink:href="#DejaVuSans-Bold-33" transform="translate(69.580078 0)"/>
     </g>
    </g>
   </g>
  </g>
 </g>
 <defs>
  <clipPath id="pb23ff8d1e7">
   <rect x="10.8" y="10.8" width="554.4" height="410.4"/>
  </clipPath>
 </defs>
</svg>
